<svg width="50" height="49" viewBox="0 0 50 49" fill="none" xmlns="http://www.w3.org/2000/svg">
<path opacity="0.6" fill-rule="evenodd" clip-rule="evenodd" d="M4.91667 0H44.25C46.9655 0 49.1667 2.16396 49.1667 4.83333V43.5C49.1667 46.1695 46.9655 48.3333 44.25 48.3333H4.91667C2.20127 48.3333 0 46.1695 0 43.5V4.83333C0 2.16396 2.20127 0 4.91667 0ZM4.91667 4.83333V43.5H44.25V4.83333H4.91667ZM22.4522 24.1773H27.0417V38.6667H31.9583V24.1773H36.8317V19.344H31.9583V16.9167C31.9583 15.582 33.0589 14.5 34.4167 14.5H36.875V9.66667H34.4167C30.3435 9.66667 27.0417 12.9126 27.0417 16.9167V19.344H22.4522V24.1773Z" fill="#074AD2"/>
</svg>
