<svg width="251" height="85" viewBox="0 0 251 85" fill="none" xmlns="http://www.w3.org/2000/svg">
<path d="M98.543 15.8333V58.2499L104.001 58.2916V38.0833H117.168V32.7499H104.001V21.1666H121.126V15.8333H98.543ZM130.96 24.4583C132.918 24.4583 134.543 22.8749 134.543 20.8749C134.543 18.8749 132.96 17.2916 130.96 17.2916C129.001 17.2916 127.376 18.8749 127.376 20.8749C127.376 22.8749 128.96 24.4583 130.96 24.4583ZM128.168 29.7916V58.2916H133.626V29.7916H128.168ZM153.876 28.9583C146.626 28.9583 141.585 35.0833 141.585 42.3749C141.585 49.6666 146.626 55.7916 153.876 55.7916C157.21 55.7916 159.918 54.5416 161.918 52.4166V56.2083C161.96 60.9166 158.21 64.8333 153.46 64.8749C153.418 64.8749 153.418 64.8749 153.376 64.8749C151.626 64.8749 149.918 64.2083 148.543 63.2499L145.793 67.9999C152.293 72.2083 160.96 70.3333 165.126 63.8333C166.585 61.5416 167.376 58.9166 167.376 56.2083V29.8333H161.918V32.3749C159.918 30.2499 157.21 28.9583 153.876 28.9583ZM147.043 42.3749C147.043 37.8333 150.501 34.2916 154.501 34.2916C158.501 34.2916 161.918 37.8749 161.918 42.3749C161.918 46.9166 158.46 50.4166 154.501 50.4166C150.501 50.4166 147.043 46.8749 147.043 42.3749ZM187.043 34.2916C183.793 34.3333 181.168 36.9999 181.21 40.2499V58.2499H175.751V29.7499H181.21V32.3749C182.876 30.1666 185.46 28.9166 188.251 28.9583C192.085 28.9583 195.043 30.8333 196.71 33.7499C198.626 30.7916 201.876 28.9999 205.376 28.9583C211.585 28.9583 215.46 33.9583 215.46 40.1666V58.2499H210.043V40.2499C210.043 36.9999 207.46 34.3333 204.21 34.2916C200.96 34.3333 198.335 36.9999 198.376 40.2499V58.2499H192.876V40.2499C192.876 36.9999 190.293 34.3333 187.043 34.2916ZM244.543 32.9999C242.043 30.3749 238.543 28.9166 234.918 28.9583C226.793 28.9583 221.043 35.8333 221.043 43.9999C221.043 52.2083 226.793 59.0416 234.918 59.0416C238.543 59.0416 242.001 57.5833 244.543 54.9999V58.2499H250.001V29.7499H244.543V32.9999ZM226.501 43.9999C226.501 38.5833 230.668 34.2499 235.543 34.2499C240.376 34.2916 244.543 38.5833 244.543 43.9999C244.543 49.4166 240.376 53.7083 235.501 53.7083C230.71 53.7499 226.501 49.4583 226.501 43.9999Z" fill="#E5E5E5"/>
<path d="M28.041 42.125C28.041 34.375 34.3327 28.0834 42.0827 28.0834C49.8327 28.0834 56.1243 34.375 56.1243 42.125C56.1243 49.875 49.8327 56.1667 42.0827 56.1667C34.3327 56.1667 28.041 49.875 28.041 42.125Z" fill="#1ABCFE"/>
<path d="M0 70.1667C0 62.4167 6.29167 56.125 14.0417 56.125H28.0833V70.1667C28.0833 77.9167 21.7917 84.2083 14.0417 84.2083C6.29167 84.2083 0 77.9167 0 70.1667Z" fill="#0ACF83"/>
<path d="M28.041 0.0416692V28.0833H42.0827C49.8327 28.0833 56.1243 21.7917 56.1243 14.0417C56.1243 6.29167 49.8327 0 42.0827 0H28.041V0.0416692Z" fill="#FF7262"/>
<path d="M0 14.0833C0 21.8333 6.29167 28.125 14.0417 28.125H28.0833V0.0833356H14.0417C6.29167 0.041669 0 6.33333 0 14.0833Z" fill="#F24E1E"/>
<path d="M0 42.1251C0 49.8751 6.29167 56.1668 14.0417 56.1668H28.0833V28.1251H14.0417C6.29167 28.0834 0 34.3751 0 42.1251Z" fill="#A259FF"/>
</svg>
