<svg width="50" height="50" viewBox="0 0 50 50" fill="none" xmlns="http://www.w3.org/2000/svg">
<g opacity="0.6">
<path d="M3.72796 3.43738C-0.150819 7.4663 0.0563681 11.8625 0.0563681 24.8644C0.0563681 35.6617 -1.24083 46.3693 8.6186 48.9175C11.6973 49.7092 38.9764 49.7092 42.051 48.9132C46.1559 47.8541 49.4958 44.5246 49.9525 38.7187C50.0162 37.9083 50.0162 11.6021 49.9503 10.7754C49.4651 4.59115 45.6582 1.02703 40.6421 0.305154C39.4925 0.138567 39.2622 0.0892087 33.3638 0.0789256C12.4418 0.0892087 7.85558 -0.842438 3.72796 3.43738Z" fill="url(#paint0_linear)"/>
<path d="M25.3354 6.2339C17.8678 6.2339 10.7766 5.56959 8.06808 12.521C6.94927 15.392 7.11175 19.1206 7.11175 24.4595C7.11175 29.1445 6.96161 33.5478 8.06808 36.3962C10.7705 43.3517 17.9193 42.6854 25.3313 42.6854C32.4821 42.6854 39.8552 43.4298 42.5966 36.3962C43.7174 33.4965 43.5528 29.8233 43.5528 24.4595C43.5528 17.3396 43.9458 12.7431 40.4926 9.29208C36.9965 5.79583 32.2683 6.2339 25.3272 6.2339H25.3354ZM23.7024 9.5183C39.2792 9.49362 41.2619 7.76196 40.1677 31.8183C39.779 40.3264 33.3008 39.3927 25.3375 39.3927C10.8178 39.3927 10.4003 38.9772 10.4003 24.4514C10.4003 9.75687 11.552 9.52654 23.7024 9.5142V9.5183ZM35.0631 12.5436C33.856 12.5436 32.8769 13.5225 32.8769 14.7298C32.8769 15.937 33.856 16.916 35.0631 16.916C36.2705 16.916 37.2495 15.937 37.2495 14.7298C37.2495 13.5225 36.2705 12.5436 35.0631 12.5436ZM25.3354 15.1C20.1671 15.1 15.9778 19.2913 15.9778 24.4595C15.9778 29.6278 20.1671 33.8173 25.3354 33.8173C30.5036 33.8173 34.691 29.6278 34.691 24.4595C34.691 19.2913 30.5036 15.1 25.3354 15.1ZM25.3354 18.3844C33.3665 18.3844 33.3768 30.5349 25.3354 30.5349C17.3064 30.5349 17.2941 18.3844 25.3354 18.3844Z" fill="white"/>
</g>
<defs>
<linearGradient id="paint0_linear" x1="3.82395" y1="46.2852" x2="49.6978" y2="6.5819" gradientUnits="userSpaceOnUse">
<stop stop-color="#FFDD55"/>
<stop offset="0.5" stop-color="#FF543E"/>
<stop offset="1" stop-color="#C837AB"/>
</linearGradient>
</defs>
</svg>
