<svg width="50" height="49" viewBox="0 0 50 49" fill="none" xmlns="http://www.w3.org/2000/svg">
<path fill-rule="evenodd" clip-rule="evenodd" d="M4.91667 0H44.25C46.9655 0 49.1667 2.16396 49.1667 4.83333V43.5C49.1667 46.1695 46.9655 48.3333 44.25 48.3333H4.91667C2.20127 48.3333 0 46.1695 0 43.5V4.83333C0 2.16396 2.20127 0 4.91667 0ZM4.91667 4.83333V43.5H44.25V4.83333H4.91667ZM27.0417 16.9167C25.769 16.9167 24.4243 17.2991 23.2364 18.0094L22.125 16.9167H19.6667V33.8333H24.5833V24.1667C24.5833 22.7754 26.0436 21.75 27.0417 21.75H29.5C30.4981 21.75 31.9583 22.7754 31.9583 24.1667V33.8333H36.875V24.1667C36.875 19.6891 32.9269 16.9167 29.5 16.9167H27.0417ZM14.75 14.5C16.1077 14.5 17.2083 13.418 17.2083 12.0833C17.2083 10.7487 16.1077 9.66667 14.75 9.66667C13.3923 9.66667 12.2917 10.7487 12.2917 12.0833C12.2917 13.418 13.3923 14.5 14.75 14.5ZM12.2917 16.9167V33.8333H17.2083V16.9167H12.2917Z" fill="#0E76A8"/>
</svg>
