<svg width="40" height="41" viewBox="0 0 40 41" fill="none" xmlns="http://www.w3.org/2000/svg">
<path d="M10.5449 35.043C10.1934 35.3242 9.98242 35.6934 9.91211 36.1504C9.8418 36.5723 9.75391 36.9941 9.64844 37.416C9.54297 37.8379 9.34961 38.207 9.06836 38.5234C8.82227 38.8047 8.36523 38.9277 7.69727 38.8926C7.55664 39.0684 7.52148 39.1738 7.5918 39.209C7.69727 39.2441 7.78516 39.4023 7.85547 39.6836C7.36328 39.6133 7.01172 39.6484 6.80078 39.7891C6.58984 39.9297 6.32617 40.0352 6.00977 40.1055C5.20117 39.8594 4.51562 39.4199 3.95312 38.7871C3.42578 38.1191 2.95117 37.3984 2.5293 36.625C2.14258 35.8516 1.79102 35.0605 1.47461 34.252C1.19336 33.4434 0.894531 32.7402 0.578125 32.1426C0.578125 32.002 0.648438 31.9492 0.789062 31.9844C0.894531 31.9844 1 31.9844 1.10547 31.9844C0.929688 31.6328 0.806641 31.2461 0.736328 30.8242C0.630859 30.3672 0.455078 29.998 0.208984 29.7168C1.22852 27.5371 2.31836 25.2695 3.47852 22.9141C4.63867 20.5234 5.79883 18.1152 6.95898 15.6895C8.1543 13.2285 9.33203 10.7676 10.4922 8.30664C11.6875 5.81055 12.8301 3.36719 13.9199 0.976562C14.9043 1.32812 15.8535 1.75 16.7676 2.24219C17.7168 2.69922 18.5781 3.24414 19.3516 3.87695C20.125 4.50977 20.7754 5.24805 21.3027 6.0918C21.8652 6.90039 22.2344 7.83203 22.4102 8.88672C22.3398 9.09766 22.252 9.16797 22.1465 9.09766C22.041 9.02734 21.9531 9.0625 21.8828 9.20312C22.0586 9.41406 22.1465 9.57227 22.1465 9.67773C22.1816 9.74805 22.1816 9.83594 22.1465 9.94141C22.1113 10.0117 22.0938 10.1172 22.0938 10.2578C22.0938 10.3984 22.1816 10.5918 22.3574 10.8379C22.1816 10.8027 22.0586 10.8379 21.9883 10.9434C21.918 11.0137 21.7949 11.0137 21.6191 10.9434C21.7949 11.4355 21.8477 11.8223 21.7773 12.1035C21.707 12.3848 21.6016 12.6484 21.4609 12.8945C21.3203 13.1055 21.1973 13.3516 21.0918 13.6328C21.0215 13.8789 21.0566 14.2305 21.1973 14.6875C21.0566 14.6875 20.9512 14.7227 20.8809 14.793C20.8457 14.8281 20.8105 14.8809 20.7754 14.9512C20.7402 15.0215 20.6875 15.0918 20.6172 15.1621C20.582 15.1973 20.4941 15.1973 20.3535 15.1621C20.459 16.0762 20.4941 17.0078 20.459 17.957C20.4238 18.8711 20.3887 19.8203 20.3535 20.8047C20.3184 21.7539 20.3184 22.7383 20.3535 23.7578C20.3887 24.7773 20.5293 25.832 20.7754 26.9219C22.2871 26.043 23.5 24.9004 24.4141 23.4941C25.3633 22.0879 26.1016 20.5234 26.6289 18.8008C27.1914 17.0781 27.6133 15.2324 27.8945 13.2637C28.2109 11.2949 28.5273 9.29102 28.8438 7.25195C29.2305 6.86523 29.5293 6.39062 29.7402 5.82812C29.9863 5.26563 30.1797 4.68555 30.3203 4.08789C30.4961 3.49023 30.6543 2.89258 30.7949 2.29492C30.9707 1.66211 31.1992 1.09961 31.4805 0.607422C32.1133 0.677734 32.6406 0.871094 33.0625 1.1875C33.5195 1.46875 33.9414 1.80273 34.3281 2.18945C34.7148 2.54102 35.1191 2.875 35.541 3.19141C35.9629 3.50781 36.4902 3.71875 37.123 3.82422C37.6152 4.52734 38.0723 5.21289 38.4941 5.88086C38.916 6.51367 39.1973 7.23437 39.3379 8.04297C39.127 8.39453 38.9688 8.78125 38.8633 9.20312C38.7578 9.625 38.6348 10.0469 38.4941 10.4688C38.3887 10.8906 38.2305 11.2773 38.0195 11.6289C37.8086 11.9805 37.5098 12.2793 37.123 12.5254C37.0176 13.5801 36.8594 14.5645 36.6484 15.4785C36.4375 16.3926 36.2441 17.2891 36.0684 18.168C35.8926 19.0469 35.7344 19.9609 35.5938 20.9102C35.4531 21.8594 35.4004 22.8965 35.4355 24.0215C35.1191 25.041 34.7676 26.0957 34.3809 27.1855C33.9941 28.2402 33.7129 29.2246 33.5371 30.1387C32.8691 30.666 32.3418 31.3164 31.9551 32.0898C31.5684 32.8633 31.1641 33.6367 30.7422 34.4102C30.5664 34.5508 30.4609 34.5859 30.4258 34.5156C30.3906 34.4102 30.2324 34.3398 29.9512 34.3047C29.9863 34.6211 29.916 34.832 29.7402 34.9375C29.5996 35.0078 29.6172 35.2539 29.793 35.6758C29.1953 35.957 28.668 36.3262 28.2109 36.7832C27.7539 37.2402 27.2441 37.6621 26.6816 38.0488C26.1543 38.4355 25.5215 38.6992 24.7832 38.8398C24.0801 38.9453 23.1484 38.7871 21.9883 38.3652C20.2656 37.0996 18.7188 35.6406 17.3477 33.9883C15.9766 32.3359 14.8867 30.3848 14.0781 28.1348C13.7266 28.2402 13.4629 28.4688 13.2871 28.8203C13.1113 29.1719 12.9531 29.541 12.8125 29.9277C12.6719 30.3145 12.5312 30.666 12.3906 30.9824C12.25 31.2988 12.0391 31.457 11.7578 31.457C11.6875 31.7734 11.5469 32.0723 11.3359 32.3535C11.1602 32.5996 10.9844 32.8633 10.8086 33.1445C10.6328 33.3906 10.4922 33.6719 10.3867 33.9883C10.3164 34.3047 10.3691 34.6562 10.5449 35.043Z" fill="#DECA62"/>
</svg>
