<svg width="156" height="126" viewBox="0 0 156 126" fill="none" xmlns="http://www.w3.org/2000/svg">
<path d="M32.5 71.5C34.8795 74.2415 42.434 75.8116 45.423 77.8398C46.373 78.4845 47.2502 79.2231 48.3105 79.6809C48.6416 79.8239 49.1444 80.3134 48.9695 79.6228C47.9856 75.7393 45.519 72.2719 43.4656 68.9058C40.2056 63.5615 36.9683 58.2143 33.6013 52.9368C31.9397 50.3323 29.2053 43.0579 27.5 40.5" stroke="#DECA62" stroke-width="5" stroke-linecap="round" stroke-linejoin="round"/>
<path d="M21.5 52.7625C24.026 52.8186 31.7706 53.8111 34.2986 53.964C39.2672 54.2646 44.7907 54.2914 49.5893 52.7625C53.9902 51.3603 57.7106 49.3256 61.0815 46.154C64.2015 43.2184 67.718 40.0641 68.9788 35.8148C69.8331 32.9357 70.001 28.9976 68.0776 26.5416C64.2634 21.6711 57.7507 18.0156 51.7986 16.6579C45.0384 15.1157 37.1906 16.0243 30.6358 18.0145C24.9982 19.7262 19.9788 22.1038 15.1417 25.4369C6.3695 31.4816 2.96822 41.9281 3.00022 52.2005C3.01066 55.5516 3.08708 58.9928 3.95952 62.2489C4.92762 65.862 6.84693 69.3547 8.58161 72.6462C13.209 81.4263 20.1037 88.7647 28.1358 94.5357C36.6761 100.672 47.364 104.331 57.7482 105.621C68.5382 106.961 80.7628 107.088 89.1241 98.9446C95.9311 92.3149 97.7207 82.8327 95.8489 73.7508C93.6937 63.2935 87.0693 54.4172 79.7831 46.8904C77.6944 44.7328 75.5639 42.479 72.942 40.9602C72.1831 40.5206 71.3217 39.9853 70.4226 39.9233C67.9603 39.7535 71.3389 47.6114 71.8083 48.3729C74.902 53.3924 80.3919 56.6699 86.2075 57.4039C87.2233 57.5321 88.788 57.802 89.628 57.0067C91.9305 54.8264 91.1194 49.6992 90.6939 47.026C89.9826 42.5572 88.4314 38.0921 86.3237 34.09C85.6245 32.7623 84.7909 31.3557 83.7172 30.2819C82.8228 29.3876 85.3477 32.2215 86.2559 33.1017C91.606 38.2863 97.3196 43.2996 103.504 47.4718C105.198 48.6145 106.997 49.7675 108.93 50.4757C110.171 50.9301 109.766 49.8141 109.56 48.8865C108.643 44.7435 107.053 40.7294 105.403 36.8323C104.406 34.4757 103.281 32.4216 101.837 30.34C101.776 30.2522 101.596 30.0349 101.702 30.0493C102.136 30.1086 103.039 31.0607 103.204 31.2121C106.404 34.164 109.396 37.3357 112.845 40.0106C114.126 41.0041 115.842 42.4251 117.535 42.6559C119.198 42.8827 118.767 37.9423 118.746 37.1908C118.505 28.5759 114.31 19.929 109.211 13.1501C106.791 9.93226 104 7.219 100.519 5.16564C99.0831 4.31834 96.3146 2.68491 94.473 3.05324C93.2673 3.29438 94.2233 6.37798 94.3567 6.88076C95.662 11.8031 98.6564 16.2652 101.605 20.34C106.174 26.6552 111.475 32.4252 116.304 38.5377C122.298 46.1228 128.044 53.9721 133.494 61.9582C140.398 72.0741 146.219 82.9405 153 93.1113" stroke="#DECA62" stroke-width="5" stroke-linecap="round" stroke-linejoin="round"/>
<path d="M80.5 123.5C82.7366 119.174 98.911 101.776 101.595 97.7239C108.883 86.7169 116.099 75.6659 123.184 64.5262C125.818 60.3833 128.411 56.2291 131.682 52.5495C134.085 49.8453 136.769 47.4533 139.317 44.8945C141.598 42.6046 143.73 40.0147 145.742 37.4817C146.025 37.1253 146.72 36.5394 146.72 36.0767" stroke="#DECA62" stroke-width="5" stroke-linecap="round" stroke-linejoin="round"/>
</svg>
