<svg width="21" height="20" viewBox="0 0 21 20" fill="none" xmlns="http://www.w3.org/2000/svg">
<line x1="1" y1="5" x2="1" y2="20" stroke="#181817" stroke-width="2"/>
<line x1="15" y1="10" x2="15" y2="20" stroke="#181817" stroke-width="2"/>
<line y1="19" x2="15" y2="19" stroke="#181817" stroke-width="2"/>
<line y1="5" x2="10" y2="5" stroke="#181817" stroke-width="2"/>
<path d="M17.4991 2.97064C17.4829 2.69497 17.2463 2.48465 16.9706 2.50086L12.4784 2.76511C12.2027 2.78133 11.9924 3.01794 12.0086 3.29361C12.0248 3.56928 12.2615 3.7796 12.5371 3.76339L16.5302 3.5285L16.7651 7.5216C16.7813 7.79726 17.0179 8.00759 17.2936 7.99137C17.5693 7.97516 17.7796 7.73854 17.7634 7.46287L17.4991 2.97064ZM9.3737 12.3322L17.3737 3.33218L16.6263 2.66782L8.6263 11.6678L9.3737 12.3322Z" fill="#181817"/>
</svg>
