<?xml version="1.0" standalone="no"?>
<!DOCTYPE svg PUBLIC "-//W3C//DTD SVG 20010904//EN"
 "http://www.w3.org/TR/2001/REC-SVG-20010904/DTD/svg10.dtd">
<svg version="1.0" xmlns="http://www.w3.org/2000/svg"
 width="856.000000pt" height="856.000000pt" viewBox="0 0 856.000000 856.000000"
 preserveAspectRatio="xMidYMid meet">
<metadata>
Created by potrace 1.11, written by Peter Selinger 2001-2013
</metadata>
<g transform="translate(0.000000,856.000000) scale(0.100000,-0.100000)"
fill="#000000" stroke="none">
<path d="M6769 8458 c-7 -13 -20 -38 -31 -56 -10 -17 -18 -35 -19 -40 0 -4 -7
-21 -13 -37 -33 -79 -81 -230 -91 -290 -2 -11 -16 -63 -30 -115 -15 -52 -28
-99 -29 -105 -2 -5 -8 -30 -15 -55 -8 -25 -15 -52 -16 -60 -2 -8 -4 -15 -5
-15 -1 0 -3 -7 -5 -15 -8 -40 -50 -170 -68 -210 -11 -25 -21 -47 -22 -50 -10
-38 -63 -158 -75 -170 -3 -3 -11 -17 -19 -32 -7 -14 -35 -53 -62 -86 -50 -62
-57 -85 -84 -282 -2 -14 -6 -38 -9 -55 -15 -89 -38 -236 -43 -280 -3 -27 -9
-57 -14 -66 -4 -9 -6 -19 -3 -21 2 -3 0 -25 -5 -49 -5 -24 -12 -68 -16 -98 -4
-30 -9 -63 -11 -75 -14 -71 -25 -137 -30 -181 -3 -27 -7 -52 -9 -55 -2 -4 -7
-29 -10 -57 -3 -27 -7 -58 -9 -69 -5 -24 -15 -89 -22 -134 -3 -19 -7 -46 -9
-60 -3 -14 -7 -41 -9 -60 -3 -19 -8 -46 -11 -60 -6 -31 -23 -116 -30 -152 -3
-16 -7 -39 -10 -53 -3 -14 -7 -35 -9 -47 -9 -48 -37 -164 -43 -178 -3 -8 -5
-19 -4 -24 2 -8 -12 -58 -26 -96 -3 -8 -7 -25 -9 -38 -3 -24 -25 -97 -86 -292
-22 -69 -41 -132 -43 -140 -2 -8 -4 -16 -5 -17 -2 -2 -3 -6 -4 -10 -4 -18 -47
-130 -56 -145 -6 -10 -10 -23 -10 -28 0 -6 -8 -30 -19 -53 -10 -23 -29 -64
-41 -92 -35 -79 -124 -260 -131 -265 -3 -3 -9 -15 -13 -27 -4 -13 -11 -23 -16
-23 -4 0 -10 -10 -14 -22 -3 -13 -26 -54 -51 -91 -25 -38 -45 -73 -45 -78 0
-5 -4 -9 -10 -9 -5 0 -10 -4 -10 -10 0 -16 -113 -171 -200 -274 -55 -65 -209
-214 -275 -266 -105 -84 -215 -161 -215 -153 0 5 -4 3 -8 -3 -4 -6 -26 -23
-49 -37 l-42 -27 -12 43 c-6 23 -13 56 -15 72 -2 17 -6 41 -10 55 -3 14 -7 43
-10 65 -5 44 -12 80 -14 80 -1 0 -3 22 -6 49 -2 27 -6 60 -9 75 -25 137 -25
814 1 1306 7 135 7 516 0 580 -19 191 -20 183 9 180 18 -2 31 4 43 22 47 68
59 77 104 82 4 1 2 16 -3 34 -10 33 -21 118 -20 152 0 27 48 138 88 204 18 30
33 60 33 65 0 6 7 24 15 40 8 15 13 32 10 36 -3 5 -1 11 4 15 14 8 5 150 -12
198 -18 45 -17 47 15 47 17 0 40 7 49 16 10 9 30 17 44 17 14 0 25 1 25 2 0 1
-11 22 -25 46 -20 37 -23 53 -19 99 9 88 6 110 -21 155 -33 56 -26 76 25 69
35 -5 39 -3 47 23 7 19 5 48 -4 93 -8 36 -16 73 -18 83 -10 44 -61 179 -98
257 -34 71 -148 256 -186 302 -6 7 -32 40 -58 73 -26 33 -70 84 -98 113 -27
29 -51 58 -53 63 -2 5 -8 9 -12 9 -5 0 -29 19 -54 43 -24 23 -57 52 -73 64
-69 52 -109 83 -120 93 -7 5 -16 10 -22 10 -5 0 -11 3 -13 8 -4 8 -145 102
-154 102 -3 0 -18 9 -34 20 -33 24 -391 206 -480 244 -36 16 -87 39 -115 51
-55 25 -192 75 -204 75 -4 0 -18 -24 -31 -52 -12 -29 -40 -89 -60 -133 -21
-44 -49 -105 -63 -135 -56 -122 -87 -190 -137 -295 -28 -60 -58 -126 -67 -145
-8 -19 -19 -42 -24 -50 -5 -8 -14 -26 -20 -40 -5 -14 -21 -47 -34 -75 -12 -27
-42 -90 -65 -139 -23 -49 -57 -120 -75 -157 -18 -37 -31 -70 -27 -73 3 -3 0
-6 -6 -6 -7 0 -12 -4 -12 -9 0 -5 -29 -69 -64 -143 -101 -212 -156 -328 -193
-408 -18 -41 -37 -82 -42 -90 -4 -8 -13 -24 -19 -35 -6 -11 -24 -49 -40 -85
-36 -78 -122 -259 -222 -465 -90 -187 -200 -414 -251 -521 -21 -45 -39 -87
-39 -93 0 -7 -6 -14 -13 -17 -8 -3 -14 -10 -14 -17 -1 -12 -154 -336 -194
-409 -11 -21 -19 -39 -18 -40 1 -2 -9 -23 -22 -48 -13 -25 -24 -47 -24 -50 -1
-3 -34 -72 -75 -155 -40 -82 -74 -152 -74 -155 -1 -3 -30 -62 -64 -132 -34
-70 -62 -132 -62 -138 0 -5 -4 -10 -10 -10 -5 0 -10 -5 -10 -11 0 -6 -30 -73
-67 -148 -36 -75 -66 -139 -65 -143 1 -5 -2 -8 -8 -8 -5 0 -10 -5 -10 -11 0
-17 -82 -183 -94 -191 -6 -4 -8 -8 -4 -8 4 0 -12 -39 -36 -87 -58 -114 -219
-447 -221 -453 -1 -3 -25 -53 -53 -112 -29 -60 -75 -156 -103 -215 -28 -60
-61 -129 -74 -155 -13 -25 -21 -49 -18 -52 4 -3 1 -6 -6 -6 -7 0 -10 -4 -7 -9
3 -5 -1 -14 -9 -21 -8 -7 -15 -18 -15 -24 0 -6 -16 -42 -35 -80 l-34 -69 31
-45 c39 -57 60 -111 94 -247 15 -61 35 -127 45 -147 11 -21 19 -40 19 -43 0
-3 -23 -5 -50 -5 -34 0 -52 -5 -56 -14 -3 -8 12 -52 34 -98 54 -114 66 -142
97 -223 15 -38 31 -78 36 -87 5 -10 9 -26 9 -36 0 -10 4 -22 8 -28 5 -5 19
-36 32 -69 13 -33 27 -64 32 -69 4 -6 8 -15 8 -22 0 -20 150 -337 197 -416 15
-25 42 -70 59 -100 56 -95 187 -272 244 -329 73 -73 153 -131 249 -180 133
-67 163 -68 292 -8 85 39 100 42 171 42 l78 0 -6 26 c-4 14 -18 38 -31 53 -23
24 -24 28 -11 55 13 27 16 28 81 28 37 0 67 3 67 7 0 3 8 5 17 4 10 -2 39 6
66 17 127 53 212 241 261 579 1 10 5 21 9 24 4 4 7 18 7 31 0 13 5 23 10 23 6
0 10 7 10 15 0 17 2 20 56 83 35 40 37 46 27 75 -41 117 -36 175 24 292 19 39
38 72 42 75 3 3 41 57 83 121 74 111 118 195 118 225 0 12 4 15 25 14 30 -1
113 77 119 112 1 7 9 29 18 48 9 19 42 100 73 180 69 178 70 181 119 257 29
45 52 69 88 88 44 24 76 26 63 4 -4 -5 -1 -9 4 -9 6 0 11 -8 11 -18 0 -10 3
-22 7 -26 4 -3 8 -12 9 -19 2 -10 23 -64 67 -167 6 -14 11 -27 12 -30 7 -20
45 -98 101 -212 37 -73 72 -143 78 -155 6 -13 14 -23 19 -23 4 0 7 -5 7 -10 0
-6 17 -39 38 -73 21 -35 41 -71 45 -80 3 -9 11 -17 17 -17 5 0 10 -5 10 -11 0
-13 64 -113 90 -142 9 -9 23 -30 31 -45 8 -15 17 -29 20 -32 4 -3 44 -53 91
-111 46 -59 115 -142 153 -185 104 -117 419 -429 515 -509 45 -38 95 -80 109
-92 35 -29 192 -153 225 -177 31 -22 100 -47 231 -82 295 -79 538 -40 780 125
132 90 225 166 355 291 57 55 111 100 133 112 12 6 26 15 31 19 25 21 83 56
113 68 41 17 45 29 25 84 -17 49 -13 66 28 117 11 14 23 45 26 70 3 25 7 46 8
47 4 5 77 -27 91 -41 15 -15 19 -15 46 1 17 10 32 28 35 40 4 13 9 23 13 23 4
0 13 16 21 35 8 19 16 35 20 35 3 0 12 17 19 38 8 20 17 39 20 42 4 3 47 84
95 180 117 231 180 324 303 448 57 57 103 111 104 120 1 23 4 40 24 119 10 37
19 75 20 83 2 8 4 15 5 15 1 0 4 14 6 30 3 17 9 34 15 40 5 5 9 17 9 26 0 17
49 165 154 464 31 88 58 167 60 175 2 8 26 80 52 160 l47 145 3 190 c2 105 5
217 8 250 13 142 21 216 30 260 2 11 7 45 11 75 4 30 9 64 11 75 4 18 18 99
28 165 3 14 5 25 6 25 1 0 3 15 6 34 2 18 18 102 35 185 17 83 33 160 35 171
2 11 7 34 11 50 3 17 8 37 9 45 1 8 5 26 8 40 3 14 8 35 11 48 3 12 7 32 10
45 3 12 8 38 11 57 3 19 10 42 14 50 4 8 8 18 8 23 0 6 12 70 17 87 3 11 18
96 21 115 1 11 3 20 4 20 2 0 7 23 14 70 4 23 8 50 10 61 4 18 8 49 21 144 1
8 5 50 10 94 6 60 12 82 27 95 89 72 166 162 200 231 35 73 48 105 53 125 2 6
17 53 33 105 35 107 56 180 57 195 3 31 51 169 80 228 33 67 33 67 20 130 -32
149 -89 276 -200 447 -34 52 -70 110 -80 128 -11 17 -23 32 -27 32 -4 0 -8 6
-8 13 0 7 -8 22 -18 33 -11 11 -21 24 -23 30 -2 5 -26 41 -53 80 l-49 71 -76
18 c-103 24 -202 72 -297 145 -103 79 -148 117 -264 224 -83 77 -229 186 -249
186 -5 0 -11 3 -13 8 -12 26 -177 89 -260 98 -41 5 -48 3 -59 -18z"/>
</g>
</svg>
